Coordinates
version=1
nRows=17
nColumns=24
inDegrees=yes

Units are S.I. units (second, meters, Newtons, ...)
Angles are in degrees.

endheader
time	pelvis_tilt	pelvis_list	pelvis_rotation	pelvis_tx	pelvis_ty	pelvis_tz	hip_flexion_r	hip_adduction_r	hip_rotation_r	knee_angle_r	ankle_angle_r	subtalar_angle_r	mtp_angle_r	hip_flexion_l	hip_adduction_l	hip_rotation_l	knee_angle_l	ankle_angle_l	subtalar_angle_l	mtp_angle_l	lumbar_extension	lumbar_bending	lumbar_rotation
      6.78000000	     -0.77579704	     -2.55184133	     -5.45330889	      0.98660669	      0.65326759	     -0.17553357	    -16.76228757	      5.93496472	      5.96416693	    -11.83670648	     19.57916330	     -5.74769173	      0.00000000	     21.58281870	     -3.02952938	     -0.47993191	     -0.69536627	     -3.45612255	    -15.71830757	      0.00000000	    -10.97959572	     -7.02278803	      4.07204695
      6.79000000	     -1.16563682	     -1.99185785	     -5.78158156	      0.99819918	      0.65213618	     -0.17623328	    -16.84160632	      5.15192770	      6.13182842	    -12.72887292	     18.61670501	     -6.04381964	      0.00000000	     22.52700407	     -2.46175308	     -1.07864273	     -3.13527340	     -5.49973863	    -17.73615353	      0.00000000	    -10.03397625	     -7.72597321	      4.30102893
      6.80000000	     -1.35051837	     -1.16857331	     -5.99619031	      1.00993735	      0.65145393	     -0.17701440	    -17.04666180	      4.11803284	      6.01929092	    -13.69710724	     17.48783263	     -6.27875040	      0.00000000	     23.20730990	     -1.58588392	     -1.55669814	     -5.49869185	     -7.60999386	    -20.01511088	      0.00000000	     -9.30260118	     -8.77313926	      4.36909312
      6.81000000	     -1.38857717	     -0.13790418	     -6.02212492	      1.02168731	      0.65124741	     -0.17789177	    -17.25182374	      2.92140536	      5.50024022	    -14.84668428	     16.13065994	     -6.37867692	      0.00000000	     23.80191761	     -0.47808591	     -2.38838246	     -7.99857978	     -8.41998461	    -20.78966992	      0.00000000	     -8.77382100	    -10.08965012	      4.18902970
      6.82000000	     -1.55556369	      0.89779437	     -6.00811933	      1.03338927	      0.65128877	     -0.17873463	    -17.20071693	      1.81024706	      5.25577740	    -16.14315160	     14.18607924	     -7.17088944	      0.00000000	     24.41608061	      0.63909072	     -2.88604034	    -10.36253372	     -8.80004495	    -21.90063940	      0.00000000	     -8.08309451	    -11.42040773	      4.11006471
      6.83000000	     -1.54497631	      1.96937606	     -5.86770180	      1.04502499	      0.65184563	     -0.17965631	    -17.11594649	      0.70133008	      4.81584400	    -17.74851604	     11.73899896	     -8.04624910	      0.00000000	     24.71850989	      1.83725013	     -3.44081618	    -12.59383255	     -8.00248796	    -22.00410037	      0.00000000	     -7.65329773	    -12.81399891	      3.90611434
      6.84000000	     -1.53277659	      2.93409156	     -5.69013192	      1.05650769	      0.65273700	     -0.18062672	    -16.76317162	     -0.26106305	      4.43105392	    -19.74363389	      8.73245707	     -9.14117650	      0.00000000	     24.82896797	      2.93537919	     -4.01817374	    -14.58150562	     -6.40065799	    -21.44233172	      0.00000000	     -7.27355431	    -14.06712290	      3.80007176
      6.85000000	     -1.52872655	      3.79682014	     -5.55262931	      1.06779314	      0.65391505	     -0.18163088	    -16.08232462	     -1.10929355	      4.22163994	    -22.18420623	      5.22158787	    -10.29422586	      0.00000000	     24.66264644	      3.94095924	     -4.52843548	    -16.10291566	     -4.60357966	    -20.82354226	      0.00000000	     -6.92978631	    -15.17612235	      3.77239989
      6.86000000	     -1.54380893	      4.50245202	     -5.49306487	      1.07875804	      0.65530633	     -0.18265106	    -15.00599735	     -1.80265508	      4.19543701	    -25.12689395	      1.24932987	    -11.50006240	      0.00000000	     24.24232390	      4.77975005	     -5.01095094	    -17.13464798	     -2.79951122	    -20.09268878	      0.00000000	     -6.63426699	    -16.06951206	      3.93790202
      6.87000000	     -1.59417878	      5.07622722	     -5.54047497	      1.08931803	      0.65681104	     -0.18365314	    -13.49671180	     -2.36877173	      4.35776787	    -28.56799173	     -2.95800732	    -12.63223482	      0.00000000	     23.62895907	      5.45320758	     -5.55853216	    -17.70802695	     -1.10121341	    -19.25523051	      0.00000000	     -6.39142787	    -16.77371376	      4.25724625
      6.88000000	     -1.67784281	      5.56948560	     -5.69076808	      1.09941797	      0.65831570	     -0.18462575	    -11.56216821	     -2.85691690	      4.63696962	    -32.47193658	     -7.07614430	    -13.62589313	      0.00000000	     22.89371308	      6.00039498	     -6.25113971	    -17.91756990	      0.45806780	    -18.29708717	      0.00000000	     -6.22650866	    -17.34607152	      4.65184248
      6.89000000	     -1.80497476	      6.02810586	     -5.91610980	      1.10906063	      0.65972587	     -0.18554949	     -9.25224027	     -3.28210601	      5.03247192	    -36.72113435	    -10.82524094	    -14.52231651	      0.00000000	     22.09551722	      6.46814835	     -7.09486821	    -17.83971692	      2.02991494	    -17.01224907	      0.00000000	     -6.13525167	    -17.84073704	      4.96778326
      6.90000000	     -1.97069200	      6.53209541	     -6.20104904	      1.11823075	      0.66092605	     -0.18648530	     -6.59827894	     -3.76072113	      5.36658294	    -41.23579656	    -13.89335975	    -15.40164530	      0.00000000	     21.32357283	      6.95008402	     -8.13369003	    -17.60316872	      3.24424361	    -15.90832283	      0.00000000	     -6.12403347	    -18.33715721	      5.26468740
      6.91000000	     -2.15431514	      7.03326506	     -6.45338224	      1.12707459	      0.66195410	     -0.18743759	     -3.79910361	     -4.17319900	      5.73864726	    -45.72859918	    -16.34622951	    -16.52606778	      0.00000000	     20.52782621	      7.43949211	     -9.13372100	    -17.22934647	      4.63500739	    -14.32368382	      0.00000000	     -6.20162028	    -18.79084644	      5.33149985
      6.92000000	     -2.27690938	      7.58349620	     -6.64613426	      1.13565438	      0.66283941	     -0.18848754	     -0.99211364	     -4.62660302	      6.01497679	    -50.07967801	    -17.94303593	    -17.85388506	      0.00000000	     19.69427537	      8.02145718	    -10.10958861	    -16.82412734	      5.85058565	    -12.88255721	      0.00000000	     -6.44933044	    -19.25964496	      5.15924460
      6.93000000	     -2.32296846	      8.10598817	     -6.73870891	      1.14408738	      0.66367209	     -0.18964290	      1.69589310	     -5.02979926	      6.22133697	    -54.10047507	    -18.70368478	    -19.44219460	      0.00000000	     18.77855563	      8.64948933	    -10.87990829	    -16.38692798	      6.91798510	    -11.57022454	      0.00000000	     -6.85843811	    -19.66136730	      4.73513912
      6.94000000	     -2.20780355	      8.60738619	     -6.69445804	      1.15249286	      0.66460994	     -0.19099674	      4.12071135	     -5.44464869	      6.28789214	    -57.68604115	    -18.52985367	    -20.85503239	      0.00000000	     17.61471012	      9.41850994	    -11.08684371	    -15.77559762	      7.55472932	    -10.92048382	      0.00000000	     -7.51093207	    -20.00247855	      3.98827786
